<svg width="2000px" height="1718px"
 viewBox="0.00 0.00 291.44 250.10" xmlns="http://www.w3.org/2000/svg" xmlns:xlink="http://www.w3.org/1999/xlink">
<g id="graph0" class="graph" transform="scale(1.0 1.0) rotate(0) translate(4 246.1)">
<title>ContextMapGraph</title>
<polygon fill="white" stroke="transparent" points="-4,4 -4,-246.1 287.44,-246.1 287.44,4 -4,4"/>
<!-- GestionClientes -->
<g id="node1" class="node">
<title>GestionClientes</title>
<polygon fill="none" stroke="black" stroke-width="2" points="223.32,-80.71 217.56,-82.67 211.6,-84.53 205.47,-86.27 199.21,-87.91 192.82,-89.41 186.34,-90.79 179.79,-92.03 173.18,-93.13 166.55,-94.08 159.91,-94.89 153.29,-95.53 146.71,-96.02 140.18,-96.36 133.73,-96.53 127.37,-96.54 121.12,-96.39 114.99,-96.09 109,-95.62 103.17,-95 97.5,-94.23 92,-93.32 86.69,-92.25 81.58,-91.06 76.67,-89.72 71.97,-88.26 67.49,-86.69 63.22,-85 59.19,-83.2 55.38,-81.31 51.81,-79.33 48.47,-77.27 45.37,-75.13 42.51,-72.94 39.89,-70.68 37.51,-68.39 35.37,-66.05 33.47,-63.69 31.82,-61.31 30.41,-58.91 29.23,-56.51 28.31,-54.12 27.62,-51.74 27.18,-49.37 26.98,-47.03 27.02,-44.73 27.31,-42.46 27.85,-40.23 28.63,-38.06 29.66,-35.93 30.93,-33.87 32.46,-31.86 34.23,-29.93 36.26,-28.06 38.53,-26.26 41.06,-24.53 43.84,-22.88 46.86,-21.31 50.14,-19.81 53.66,-18.4 57.43,-17.06 61.44,-15.81 65.69,-14.64 70.17,-13.55 74.88,-12.54 79.82,-11.62 84.96,-10.78 90.32,-10.02 95.86,-9.35 101.6,-8.75 107.5,-8.25 113.57,-7.82 119.78,-7.48 126.12,-7.22 132.57,-7.05 139.12,-6.96 145.74,-6.96 152.42,-7.04 159.14,-7.21 165.88,-7.47 172.6,-7.82 179.3,-8.25 185.95,-8.78 192.51,-9.39 198.98,-10.1 205.32,-10.9 211.51,-11.79 217.53,-12.78 223.35,-13.85 228.96,-15.03 234.32,-16.29 239.41,-17.64 244.22,-19.09 248.72,-20.63 252.9,-22.26 256.73,-23.97 260.21,-25.77 263.31,-27.65 266.02,-29.61 268.33,-31.64 270.24,-33.74 271.72,-35.92 272.78,-38.15 273.41,-40.44 273.61,-42.78 273.38,-45.16 272.71,-47.58 271.62,-50.03 270.11,-52.5 268.18,-54.98 265.85,-57.47 263.12,-59.96 260.01,-62.43 256.54,-64.88 252.7,-67.31 248.54,-69.69 244.05,-72.03 239.26,-74.31 234.2,-76.52 228.88,-78.66 223.32,-80.71"/>
<text text-anchor="middle" x="141.72" y="-44.55" font-family="sans-serif" font-size="16.00">GestionClientes</text>
</g>
<!-- GestionVehiculos -->
<g id="node2" class="node">
<title>GestionVehiculos</title>
<polygon fill="none" stroke="black" stroke-width="2" points="243.57,-166.52 248.93,-168.75 253.98,-171.05 258.69,-173.4 263.05,-175.79 267.03,-178.22 270.62,-180.67 273.8,-183.14 276.56,-185.61 278.88,-188.09 280.76,-190.56 282.18,-193.01 283.14,-195.44 283.64,-197.83 283.66,-200.19 283.23,-202.5 282.32,-204.76 280.95,-206.97 279.13,-209.11 276.87,-211.19 274.16,-213.19 271.04,-215.13 267.5,-216.98 263.57,-218.75 259.26,-220.44 254.59,-222.05 249.59,-223.57 244.27,-225 238.66,-226.34 232.77,-227.59 226.65,-228.75 220.3,-229.82 213.75,-230.79 207.04,-231.68 200.18,-232.47 193.21,-233.17 186.14,-233.79 179.01,-234.31 171.84,-234.75 164.65,-235.09 157.47,-235.35 150.31,-235.52 143.21,-235.6 136.19,-235.59 129.25,-235.5 122.43,-235.32 115.74,-235.06 109.2,-234.71 102.82,-234.27 96.61,-233.75 90.6,-233.14 84.79,-232.44 79.18,-231.66 73.8,-230.8 68.65,-229.84 63.73,-228.8 59.06,-227.68 54.63,-226.47 50.45,-225.17 46.53,-223.79 42.87,-222.33 39.46,-220.78 36.31,-219.16 33.43,-217.45 30.8,-215.67 28.44,-213.81 26.33,-211.88 24.49,-209.89 22.91,-207.82 21.59,-205.7 20.53,-203.52 19.72,-201.28 19.18,-199 18.89,-196.68 18.86,-194.32 19.09,-191.94 19.58,-189.53 20.33,-187.11 21.34,-184.68 22.6,-182.25 24.13,-179.83 25.92,-177.43 27.97,-175.05 30.28,-172.7 32.86,-170.4 35.7,-168.16 38.8,-165.97 42.16,-163.85 45.79,-161.81 49.67,-159.86 53.81,-158 58.2,-156.24 62.84,-154.6 67.73,-153.07 72.85,-151.66 78.21,-150.39 83.78,-149.26 89.58,-148.26 95.58,-147.41 101.77,-146.72 108.13,-146.17 114.67,-145.79 121.35,-145.56 128.17,-145.49 135.1,-145.58 142.13,-145.83 149.24,-146.24 156.4,-146.81 163.6,-147.54 170.8,-148.41 177.99,-149.43 185.14,-150.6 192.23,-151.9 199.23,-153.34 206.12,-154.9 212.86,-156.58 219.44,-158.38 225.82,-160.28 231.99,-162.27 237.91,-164.36 243.57,-166.52"/>
<text text-anchor="middle" x="141.72" y="-190.1" font-family="sans-serif" font-size="16.00">GestionVehiculos</text>
</g>
<!-- GestionVehiculos&#45;&gt;GestionClientes -->
<g id="edge1" class="edge">
<title>GestionVehiculos&#45;&gt;GestionClientes</title>
<path fill="none" stroke="black" stroke-width="2" d="M141.72,-145.5C141.72,-129.82 141.72,-112.38 141.72,-96.7"/>
<text text-anchor="middle" x="183.72" y="-118.09" font-family="sans-serif" font-size="12.00">Shared Kernel</text>
</g>
</g>
</svg>
